<svg id="Laag_1" data-name="Laag 1" xmlns="http://www.w3.org/2000/svg" viewBox="0 0 1321 254"><defs><style>.cls-1,.cls-5{fill:#fff;}.cls-2,.cls-6{fill:red;}.cls-3,.cls-4{fill:none;}.cls-3,.cls-5{stroke:red;}.cls-3,.cls-4,.cls-5,.cls-6{stroke-miterlimit:10;}.cls-4,.cls-6{stroke:#fff;}</style></defs><path class="cls-1" d="M305.86,112.41l6-38.24c1.94-12.13,4.28-26.39,7.73-44.11h-.4C312.75,45.28,305.86,60.81,300,72.94l-17.55,37.25H261.31l-2-37.13c-.63-11.49-1.38-27.31-1.86-43h-.32c-3.44,16.05-6.53,32.1-9.31,44.11L239,112.41H214.28L240.75,5.57h36.49l1.23,31.7c.4,10.39,1.55,23.5,1.47,37.1h.67C285.33,60.77,291.43,47,296,37L310.06,5.57H347L332.09,112.41Z"/><path class="cls-1" d="M422.56,69.25H385L381.1,89.38h42.21l-4.36,23H349.68L369.89,5.57h67.05l-4.48,23H392.68l-3.49,18H427Z"/><path class="cls-1" d="M507.83,69.25H470.27l-3.89,20.13h42.2l-4.35,23H435L455.17,5.57h67.05l-4.48,23H478l-3.48,18h37.76Z"/><path class="cls-1" d="M540.36,7.75c7.41-1.86,19.1-2.89,30.87-2.89,9.87,0,21,1,29.21,5.47C608.13,14.41,614,21.46,614,32.56c0,16-9.91,25.08-23.66,29.88l-.11.59c5.86,2.93,8.36,9.55,9.51,18.63,1.38,10.74,2.29,26.27,4.35,30.75H576.31c-1-3.09-2.1-11.45-3.25-25-1-12.16-5.08-15.25-13.44-15.25h-4.91l-7.61,40.22H520.35Zm18.27,44.38H567c10.54,0,18.87-6,18.87-15.41,0-7.41-6.62-10.7-14.47-10.7a44.09,44.09,0,0,0-8,.59Z"/><path class="cls-1" d="M622.87,84.11a54.33,54.33,0,0,0,26.31,6.74c7.45.08,14.22-2.77,14.22-9.11,0-5.31-4.75-8.29-13.91-13.08C639.15,63.19,627,54.87,627,40c0-22.67,19.89-36.1,44.66-36.1,14.14,0,21.75,2.69,26.78,5.11l-8.32,22.63a45.13,45.13,0,0,0-20.44-4.52c-9.59,0-14.15,3.84-14.15,8.4,0,5.15,7.05,8.56,15.18,13.16,12.91,6.65,21.51,15.41,21.51,28.09,0,26-22,37.29-45.61,37.29-16.64,0-27.38-4.16-32.65-7.73Z"/><path class="cls-1" d="M724.39,112.41,711.11,5.57h27.94l3.53,43.2c1.11,11.53,1.9,23.77,2.73,36.57h.32c4.55-12.08,10.3-25,15.37-36L780.54,5.57h30.27L756.13,112.41Z"/><path class="cls-1" d="M822.9,5.57h27L834.23,88.79h40.18L870,112.41H802.69Z"/><path class="cls-1" d="M929.69,5.57,909.48,112.41h-27L902.67,5.57Z"/><path class="cls-1" d="M1002.21,69.25H964.64l-3.88,20.13H1003l-4.36,23H929.33L949.54,5.57h67.05l-4.48,23H972.33l-3.49,18h37.77Z"/><path class="cls-1" d="M1050.08,29.19h-26.83l4.63-23.62H1109l-4.52,23.62H1077.1l-15.61,83.22h-27Z"/><path class="cls-1" d="M299.84,243.86c-5.51,2.46-15.14,4.4-28.33,4.4-28.93,0-48.9-17.31-48.9-45.77,0-25.79,11.85-44.14,28.77-54.44,11.13-6.9,23.89-10,38.71-10,11.49,0,20.25,2.5,23.54,4.16l-7.09,22a55.21,55.21,0,0,0-18.67-3c-8.4,0-16.05,2.26-21.79,6.66-8.44,6.46-14,17.28-14,31.58,0,16.21,10,25.68,26.63,25.68,7.33,0,14.15-1.11,19.22-3.13Z"/><path class="cls-1" d="M417.25,183c0,19.73-6.81,38.12-18.94,49.89-10.18,9.83-24.09,15.49-40.65,15.49-27.74,0-44.58-19.22-44.58-45,0-19.5,7.05-38,19.45-49.82,10.3-9.78,24.21-15.53,40.34-15.53C400.85,138,417.25,156.21,417.25,183ZM354,167.38c-7.73,7.73-12.09,23.27-12.09,35.31,0,14,6.38,23.18,19.7,23.18a21.22,21.22,0,0,0,15-6.57c7.65-7.65,11.81-24.38,11.81-35.67,0-12.56-4.76-23.14-18.67-23.14A22,22,0,0,0,354,167.38Z"/><path class="cls-1" d="M422,246.6l20.21-106.84H474.4L484,172c4.21,14.23,7.26,26.43,9.91,39.35h.44c.43-11.53,2.14-24.45,5.11-40.42l5.82-31.19h25.21L510.26,246.6H482l-10.78-34.87c-4.51-15.1-7.64-25.72-10.66-40H460c-1.15,10.62-4,27.62-7.41,45.46l-5.51,29.44Z"/><path class="cls-2" d="M565.42,163.38H538.59l4.64-23.62h81.11l-4.51,23.62H592.44L576.83,246.6h-27Z"/><path class="cls-2" d="M690,203.44H652.44l-3.89,20.14h42.21l-4.36,23H617.13l20.21-106.84h67l-4.48,23H660.12l-3.48,17.95H694.4Z"/><path class="cls-2" d="M702.41,246.6l20.21-106.84h32.17L764.38,172c4.2,14.23,7.25,26.43,9.91,39.35h.43c.44-11.53,2.15-24.45,5.12-40.42l5.82-31.19h25.21L790.66,246.6H762.4l-10.78-34.87C747.1,196.63,744,186,741,171.7h-.55c-1.15,10.62-4,27.62-7.41,45.46l-5.51,29.44Z"/><path class="cls-2" d="M845.82,163.38H819l4.63-23.62h81.12l-4.52,23.62H872.84L857.23,246.6h-27Z"/><path class="cls-1" d="M970.4,203.44H932.83L929,223.58h42.2l-4.36,23H897.53l20.21-106.84h67l-4.48,23H940.52L937,180.7H974.8Z"/><path class="cls-1" d="M1002.93,141.94c7.41-1.86,19.1-2.89,30.87-2.89,9.87,0,21,1,29.21,5.47,7.69,4.08,13.51,11.13,13.51,22.23,0,16-9.91,25.08-23.66,29.88l-.11.59c5.86,2.94,8.36,9.55,9.5,18.63,1.39,10.74,2.3,26.27,4.36,30.75h-27.73c-1-3.09-2.1-11.45-3.25-25-1-12.16-5.08-15.25-13.44-15.25h-4.91l-7.61,40.22H982.92Zm18.27,44.39h8.36c10.54,0,18.87-6,18.87-15.42,0-7.41-6.62-10.7-14.47-10.7a43,43,0,0,0-8,.6Z"/><path class="cls-3" d="M308.2,115.08l6-38.24c1.95-12.12,4.28-26.39,7.73-44.1h-.39C315.1,48,308.2,63.49,302.38,75.62l-17.56,37.25H263.66l-2-37.14c-.64-11.49-1.39-27.3-1.86-43h-.32c-3.45,16-6.54,32.1-9.31,44.1l-8.8,38.24H216.62L243.09,8.25h36.5L280.82,40c.39,10.38,1.54,23.5,1.46,37.09H283c4.71-13.59,10.82-27.38,15.37-37.33L312.4,8.25h36.89L334.43,115.08Z"/><path class="cls-3" d="M424.9,71.93H387.33l-3.88,20.13h42.2l-4.36,23H352L372.24,8.25h67l-4.47,23H395l-3.49,18H429.3Z"/><path class="cls-3" d="M510.18,71.93H472.61l-3.88,20.13h42.2l-4.36,23H437.3L457.51,8.25h67l-4.48,23H480.3l-3.49,18h37.77Z"/><path class="cls-3" d="M542.71,10.43c7.41-1.86,19.1-2.89,30.87-2.89,9.87,0,21,1,29.2,5.46,7.69,4.09,13.52,11.14,13.52,22.24,0,16-9.91,25.08-23.66,29.87l-.12.6c5.87,2.93,8.36,9.55,9.51,18.62,1.39,10.74,2.3,26.28,4.36,30.75H578.65c-.95-3.09-2.1-11.45-3.25-25-1-12.17-5.07-15.26-13.43-15.26h-4.92l-7.6,40.22H522.7ZM561,54.81h8.36c10.54,0,18.86-6,18.86-15.41,0-7.41-6.62-10.7-14.46-10.7a43.3,43.3,0,0,0-8,.59Z"/><path class="cls-3" d="M625.21,86.79a54.39,54.39,0,0,0,26.31,6.74c7.45.08,14.23-2.78,14.23-9.12,0-5.31-4.76-8.28-13.91-13.07-10.34-5.47-22.51-13.79-22.51-28.65C629.33,20,649.22,6.58,674,6.58c14.15,0,21.76,2.7,26.79,5.12l-8.32,22.62A45.34,45.34,0,0,0,672,29.81c-9.59,0-14.15,3.84-14.15,8.4,0,5.15,7.06,8.56,15.18,13.15C686,58,694.56,66.78,694.56,79.46c0,26-22,37.29-45.61,37.29-16.65,0-27.39-4.16-32.66-7.73Z"/><path class="cls-3" d="M726.73,115.08,713.46,8.25h27.93l3.53,43.19C746,63,746.82,75.22,747.66,88H748c4.56-12.09,10.31-25,15.38-36L782.88,8.25h30.28L758.47,115.08Z"/><path class="cls-3" d="M825.24,8.25h27L836.58,91.47h40.18l-4.44,23.61H805Z"/><path class="cls-3" d="M932,8.25,911.83,115.08h-27L905,8.25Z"/><path class="cls-3" d="M1004.55,71.93H967L963.1,92.06h42.2l-4.35,23H931.68L951.89,8.25h67.05l-4.48,23H974.67l-3.48,18H1009Z"/><path class="cls-3" d="M1052.42,31.87h-26.83l4.64-23.62h81.12l-4.52,23.62h-27.38l-15.62,83.21h-27Z"/><path class="cls-3" d="M302.19,246.54c-5.51,2.46-15.14,4.4-28.34,4.4-28.93,0-48.9-17.32-48.9-45.77,0-25.8,11.85-44.14,28.77-54.45,11.14-6.89,23.9-9.94,38.72-9.94,11.49,0,20.25,2.49,23.54,4.16l-7.1,22a55.13,55.13,0,0,0-18.66-3c-8.4,0-16.05,2.26-21.8,6.66-8.44,6.46-14,17.27-14,31.58,0,16.21,10,25.68,26.62,25.68,7.34,0,14.15-1.11,19.22-3.13Z"/><path class="cls-3" d="M419.6,185.64c0,19.73-6.82,38.12-18.94,49.89C390.47,245.35,376.56,251,360,251c-27.74,0-44.58-19.22-44.58-45,0-19.49,7.05-38,19.46-49.81,10.3-9.79,24.21-15.53,40.34-15.53C403.19,140.7,419.6,158.89,419.6,185.64Zm-63.25-15.58c-7.72,7.73-12.08,23.26-12.08,35.31,0,14,6.38,23.18,19.69,23.18a21.22,21.22,0,0,0,15-6.58c7.65-7.64,11.81-24.37,11.81-35.66,0-12.56-4.75-23.14-18.66-23.14A22,22,0,0,0,356.35,170.06Z"/><path class="cls-3" d="M424.35,249.28l20.21-106.84h32.18l9.59,32.26c4.2,14.22,7.25,26.43,9.91,39.35h.43c.44-11.53,2.14-24.45,5.11-40.42l5.83-31.19h25.2L512.6,249.28H484.35L473.57,214.4c-4.52-15.09-7.65-25.71-10.66-40h-.55C461.21,185,458.31,202,455,219.83l-5.51,29.45Z"/><path class="cls-4" d="M567.76,166.06H540.94l4.63-23.62h81.12l-4.52,23.62H594.79l-15.61,83.22h-27Z"/><path class="cls-4" d="M692.35,206.12H654.78l-3.88,20.13h42.2l-4.36,23H619.47l20.21-106.84h67.05l-4.48,23H662.47L659,183.38h37.77Z"/><path class="cls-4" d="M704.75,249.28,725,142.44h32.18l9.59,32.26c4.2,14.22,7.25,26.43,9.9,39.35h.44c.44-11.53,2.14-24.45,5.11-40.42L788,142.44h25.2L793,249.28H764.75L754,214.4c-4.52-15.09-7.65-25.71-10.66-40h-.56c-1.15,10.62-4,27.62-7.41,45.45l-5.51,29.45Z"/><path class="cls-4" d="M848.16,166.06H821.33L826,142.44h81.11l-4.51,23.62H875.19l-15.62,83.22h-27Z"/><path class="cls-3" d="M972.75,206.12H935.18l-3.88,20.13h42.2l-4.36,23H899.87l20.21-106.84h67l-4.48,23H942.87l-3.49,17.95h37.76Z"/><path class="cls-3" d="M1005.28,144.62c7.41-1.86,19.1-2.89,30.87-2.89,9.86,0,21,1,29.2,5.47,7.69,4.08,13.52,11.13,13.52,22.23,0,16-9.91,25.08-23.66,29.88l-.12.59c5.86,2.93,8.36,9.55,9.51,18.63,1.39,10.73,2.3,26.27,4.36,30.75h-27.74c-1-3.09-2.1-11.46-3.25-25-1-12.16-5.07-15.26-13.43-15.26h-4.92L1012,249.28H985.27ZM1023.55,189h8.36c10.54,0,18.86-6,18.86-15.41,0-7.41-6.62-10.7-14.46-10.7a44.14,44.14,0,0,0-8,.59Z"/><path class="cls-2" d="M93.43,188.62a95,95,0,0,1,16.35-1.28c8.6,0,15.54,1.68,20.61,5.51,5.26,4.06,8.42,9.89,8.42,18.74,0,11.3-4.82,20.48-11.72,25.8-6.65,5.15-15,7.42-27.85,7.42a88.24,88.24,0,0,1-16.31-1.24Zm6,44.35a28.82,28.82,0,0,0,4.43.25c5.52,0,11-2.16,14.27-6.16s5.07-9.13,5.07-15.42c0-8.52-5-12.86-13.21-12.86a21.76,21.76,0,0,0-4,.3Z"/><path class="cls-2" d="M180,221.53H160.08L158,232.21h22.4l-2.31,12.23H141.33l10.73-56.72h35.6l-2.38,12.2H164.16l-1.85,9.53h20.05Z"/><path class="cls-4" d="M94.67,190A95.09,95.09,0,0,1,111,188.76c8.61,0,15.55,1.68,20.62,5.51,5.26,4.06,8.41,9.89,8.41,18.75,0,11.29-4.81,20.47-11.71,25.79-6.65,5.15-15,7.43-27.86,7.43A89.12,89.12,0,0,1,84.18,245Zm6,44.35a29,29,0,0,0,4.44.25c5.51,0,11-2.16,14.26-6.16s5.07-9.13,5.07-15.42c0-8.52-5-12.85-13.21-12.85a22.13,22.13,0,0,0-4,.29Z"/><path class="cls-4" d="M181.27,223h-20l-2.06,10.68h22.41l-2.32,12.23H142.58l10.73-56.72H188.9l-2.37,12.2H165.41l-1.86,9.53h20Z"/><path class="cls-2" d="M1177.07,58.94c-2.92,1.31-8,2.34-15,2.34-15.36,0-26-9.19-26-24.3,0-13.7,6.29-23.44,15.27-28.91,5.91-3.66,12.69-5.28,20.56-5.28,6.1,0,10.75,1.33,12.49,2.21l-3.76,11.68a29.3,29.3,0,0,0-9.91-1.6,18.94,18.94,0,0,0-11.57,3.53c-4.48,3.43-7.45,9.18-7.45,16.77C1151.7,44,1157,49,1165.84,49a28.59,28.59,0,0,0,10.2-1.66Z"/><path class="cls-2" d="M1208,3.68l-6.1,32.19a32.36,32.36,0,0,0-.64,6.56c.07,3.43,2.26,6.92,7.28,6.92,5.75,0,9.28-3.77,11.11-13.38l6.12-32.29h14.35l-5.95,31.51c-3.31,17.3-10.46,26.13-27.35,26.13-12.73,0-19.86-6.42-19.86-18.64a47.58,47.58,0,0,1,.84-8l5.85-31Z"/><path class="cls-2" d="M1250.07,4.83a71.49,71.49,0,0,1,15.87-1.53c4.94,0,11,.61,15.54,3.47a14.24,14.24,0,0,1,7,12.85,19.73,19.73,0,0,1-8.06,16.43c-4.73,3.58-11.42,5.22-18.55,5.22-1.94,0-3.58-.25-4.59-.31l-3.72,19.44h-14Zm9.39,24.49a21.05,21.05,0,0,0,4.27.38c6.29,0,10.37-4.12,10.37-8.79,0-4.86-3.56-6.25-7.47-6.25a26.67,26.67,0,0,0-4.42.29Z"/><path class="cls-4" d="M1178.32,60.37c-2.93,1.3-8,2.33-15,2.33-15.35,0-26-9.19-26-24.3,0-13.69,6.29-23.43,15.28-28.9,5.91-3.67,12.68-5.29,20.55-5.29,6.1,0,10.75,1.33,12.5,2.21l-3.77,11.68a29.2,29.2,0,0,0-9.91-1.6A18.88,18.88,0,0,0,1160.39,20c-4.48,3.42-7.45,9.17-7.45,16.76,0,8.61,5.33,13.64,14.14,13.64a28.45,28.45,0,0,0,10.21-1.67Z"/><path class="cls-4" d="M1209.22,5.1l-6.1,32.19a32.49,32.49,0,0,0-.63,6.56c.06,3.43,2.25,6.92,7.28,6.92,5.74,0,9.28-3.76,11.11-13.38L1227,5.1h14.35l-6,31.51c-3.3,17.3-10.45,26.13-27.35,26.13-12.73,0-19.86-6.41-19.86-18.64a48.4,48.4,0,0,1,.84-8l5.85-31Z"/><path class="cls-4" d="M1251.32,6.26a71.33,71.33,0,0,1,15.86-1.54c4.94,0,11,.61,15.55,3.47a14.26,14.26,0,0,1,7,12.86,19.77,19.77,0,0,1-8,16.43c-4.74,3.57-11.43,5.21-18.56,5.21-1.93,0-3.57-.25-4.58-.31l-3.73,19.44h-14Zm9.38,24.48a21.05,21.05,0,0,0,4.27.38c6.29,0,10.37-4.12,10.37-8.79,0-4.86-3.55-6.25-7.46-6.25a25.16,25.16,0,0,0-4.42.3Z"/><rect class="cls-2" x="6" y="148" width="184" height="6"/><rect class="cls-2" x="1132" y="102" width="184" height="6"/><rect class="cls-1" x="1132" y="90" width="56" height="6"/><rect class="cls-1" x="134" y="161" width="56" height="6"/><rect class="cls-5" x="99" y="136" width="91" height="6"/><rect class="cls-5" x="1132.5" y="114.5" width="91" height="6"/><rect class="cls-6" x="1132.5" y="126.5" width="35" height="6"/><rect class="cls-6" x="154.5" y="124.5" width="35" height="6"/></svg>