<?xml version="1.0" encoding="utf-8"?>
<!-- Generator: Adobe Illustrator 24.2.0, SVG Export Plug-In . SVG Version: 6.00 Build 0)  -->
<svg version="1.1" id="Layer_1" xmlns="http://www.w3.org/2000/svg" xmlns:xlink="http://www.w3.org/1999/xlink" x="0px" y="0px"
	 viewBox="0 0 725 725" style="enable-background:new 0 0 725 725;" xml:space="preserve">
<style type="text/css">
	.st0{fill:#F80D00;}
	.st1{fill:#E90600;}
	.st2{fill:#FF1E1E;}
	.st3{fill:#B80E00;}
	.st4{fill:#A26E3D;}
	.st5{fill:none;stroke:#A26E3D;stroke-width:30.5073;stroke-linecap:round;stroke-miterlimit:10;}
	.st6{fill:#740600;}
	.st7{fill:#B80000;}
	.st8{fill:none;stroke:#C10F00;stroke-width:10.1691;stroke-linecap:round;stroke-miterlimit:10;}
</style>
<g id="Layer_1_1_">
	<g>
		<polygon class="st0" points="363,134.1 90.3,569.8 363,569.8 		"/>
		<polygon class="st1" points="363,134.1 632.2,569.8 363,569.8 		"/>
		<polygon class="st2" points="363,569.5 363,496.3 137.6,496.3 90.5,569.5 		"/>
		<polygon class="st3" points="632,569.5 588.4,496.3 438.6,496.3 472.3,569.5 		"/>
		<path class="st4" d="M640.9,600.7h-558c-8.6,0-15.6-7-15.6-15.6l0,0c0-8.6,7-15.6,15.6-15.6h557.9c8.6,0,15.6,7,15.6,15.6l0,0
			C656.5,593.7,649.5,600.7,640.9,600.7z"/>
		<line class="st5" x1="34.9" y1="549.7" x2="34.9" y2="590"/>
		<line class="st5" x1="689.1" y1="549.7" x2="689.1" y2="590"/>
		<polygon class="st6" points="363,331.8 472.3,569.5 251.7,569.5 		"/>
		<polygon class="st7" points="363,331.8 183.8,502.3 251.7,569.5 		"/>
		<polyline class="st8" points="372.6,123.3 46.6,563.4 13.6,563.4 		"/>
		<polyline class="st8" points="353.2,123.3 677.4,563.4 710.4,563.4 		"/>
	</g>
</g>
</svg>
